<?xml version="1.0" encoding="UTF-8"?>
<svg width="48px" height="46px" viewBox="0 0 48 46" version="1.1" xmlns="http://www.w3.org/2000/svg" xmlns:xlink="http://www.w3.org/1999/xlink">
    
    <defs>
        <filter x="-83.6%" y="-138.5%" width="267.2%" height="376.9%" filterUnits="objectBoundingBox" id="filter-1">
            <feGaussianBlur stdDeviation="4.89795918" in="SourceGraphic"></feGaussianBlur>
        </filter>
        <linearGradient x1="50%" y1="0%" x2="50%" y2="100%" id="linearGradient-2">
            <stop stop-color="#A5D8FC" offset="0%"></stop>
            <stop stop-color="#FFFFFF" offset="100%"></stop>
        </linearGradient>
        <path d="M14.8775508,1.49188692 C15.2157621,1.67425892 15.4935272,1.9514069 15.6777444,2.29030291 L27.5942964,24.1447866 C27.9317994,24.7628945 27.9180677,25.5126773 27.5581573,26.1180694 C27.1982468,26.7234615 26.5453711,27.0949543 25.8399151,27.0957675 L2.00249354,27.0957675 C1.2962675,27.0964743 0.641994881,26.7255856 0.281036353,26.1199212 C-0.0799221763,25.5142567 -0.0940765892,24.7635692 0.243794666,24.1447866 L12.1632251,2.29030291 C12.4167118,1.82455387 12.8454342,1.4785147 13.3548768,1.32847276 C13.8643193,1.17843082 14.412652,1.23670596 14.87899,1.49045093 L14.8775508,1.49188692 Z M13.9204847,3.2438069 L2.00249354,25.0997266 L25.8355975,25.0997266 L13.9190455,3.2438069 L13.9204847,3.2438069 Z M14.0212285,20.3523106 C14.3785806,20.3523106 14.7087875,20.5425321 14.8874636,20.8513206 C15.0661396,21.1601091 15.0661396,21.5405522 14.8874636,21.8493406 C14.7087875,22.1581291 14.3785806,22.3483506 14.0212285,22.3483506 C13.4688102,22.3483506 13.0209866,21.9015218 13.0209866,21.3503306 C13.0209866,20.7991394 13.4688102,20.3523106 14.0212285,20.3523106 L14.0212285,20.3523106 Z M14.7652934,9.36973868 C14.9092131,9.36973868 15.0243489,9.48179079 15.0214705,9.63687882 L14.8099085,19.0857586 C14.8069528,19.2311657 14.6907602,19.3489904 14.5450963,19.3542906 L13.4973608,19.3542906 C13.4267462,19.3539108 13.3591751,19.3255568 13.309513,19.2754664 C13.2598508,19.2253759 13.2321658,19.1576524 13.2325485,19.0871947 L13.0209865,9.63687882 C13.0169682,9.56664242 13.0424718,9.49791318 13.0913629,9.44722299 C13.140254,9.39653279 13.2081077,9.3684693 13.2786028,9.36973868 L14.7652934,9.36973868 Z" id="path-3"></path>
        <filter x="-16.2%" y="-29.0%" width="139.5%" height="142.6%" filterUnits="objectBoundingBox" id="filter-4">
            <feOffset dx="1" dy="-2" in="SourceAlpha" result="shadowOffsetOuter1"></feOffset>
            <feGaussianBlur stdDeviation="1.5" in="shadowOffsetOuter1" result="shadowBlurOuter1"></feGaussianBlur>
            <feColorMatrix values="0 0 0 0 0.854513859   0 0 0 0 0.213174586   0 0 0 0 0.29577131  0 0 0 0.75 0" type="matrix" in="shadowBlurOuter1"></feColorMatrix>
        </filter>
    </defs>
    <g id="页面-1" stroke="none" stroke-width="1" fill="none" fill-rule="evenodd">
        <g id="1_1.站控系统（站点）首页全屏_绿电_V2.2(波斯语）" transform="translate(-556, -257)">
            <g id="告警" transform="translate(542, 281) scale(-1, 1) translate(-542, -281)translate(474, 261)">
                <g id="icon_告警" transform="translate(16.0589, 0)">
                    <ellipse id="椭圆形" fill="#DA364B" style="mix-blend-mode: normal;" filter="url(#filter-1)" cx="14.1854739" cy="21.4142773" rx="8.78814904" ry="5.30636767"></ellipse>
                    <path d="M16.1271376,0.24507605 C16.4653489,0.427448056 16.7431139,0.704596029 16.9273312,1.04349205 L28.8438831,22.8979757 C29.1813862,23.5160837 29.1676545,24.2658665 28.8077441,24.8712585 C28.4478336,25.4766506 27.7949579,25.8481435 27.0895019,25.8489567 L3.25208032,25.8489567 C2.54585427,25.8496634 1.89158166,25.4787748 1.53062313,24.8731103 C1.1696646,24.2674459 1.15551019,23.5167583 1.49338144,22.8979757 L13.4128118,1.04349205 C13.6662986,0.577743007 14.095021,0.231703834 14.6044636,0.0816618924 C15.1139061,-0.0683800497 15.6622388,-0.0101049038 16.1285768,0.243640064 L16.1271376,0.24507605 Z M15.1700715,1.99699604 L3.25208032,23.8529157 L27.0851843,23.8529157 L15.1686323,1.99699604 L15.1700715,1.99699604 Z M15.2708153,19.1054998 C15.6281674,19.1054998 15.9583743,19.2957213 16.1370503,19.6045097 C16.3157264,19.9132982 16.3157264,20.2937413 16.1370503,20.6025298 C15.9583743,20.9113182 15.6281674,21.1015397 15.2708153,21.1015397 C14.7183969,21.1015397 14.2705734,20.6547109 14.2705734,20.1035197 C14.2705734,19.5523286 14.7183969,19.1054998 15.2708153,19.1054998 L15.2708153,19.1054998 Z M16.0148802,8.12292782 C16.1587999,8.12292782 16.2739357,8.23497992 16.2710573,8.39006795 L16.0594953,17.8389478 C16.0565396,17.9843549 15.940347,18.1021795 15.794683,18.1074798 L14.7469475,18.1074798 C14.676333,18.1070999 14.6087619,18.0787459 14.5590997,18.0286555 C14.5094376,17.9785651 14.4817526,17.9108415 14.4821353,17.8403838 L14.2705733,8.39006795 C14.2665549,8.31983155 14.2920586,8.25110232 14.3409497,8.20041212 C14.3898408,8.14972192 14.4576945,8.12165844 14.5281896,8.12292782 L16.0148802,8.12292782 Z" id="形状" stroke="#D84556" stroke-width="0.5" opacity="0.192644392" style="mix-blend-mode: normal;" fill-rule="nonzero"></path>
                    <g id="形状" fill-rule="nonzero">
                        <use fill="black" fill-opacity="1" filter="url(#filter-4)" xlink:href="#path-3"></use>
                        <use fill="url(#linearGradient-2)" xlink:href="#path-3"></use>
                        <use fill="#FFFFFF" xlink:href="#path-3"></use>
                    </g>
                </g>
            </g>
        </g>
    </g>
</svg>