<?xml version="1.0" encoding="UTF-8"?>
<svg width="48px" height="43px" viewBox="0 0 48 43" version="1.1" xmlns="http://www.w3.org/2000/svg" xmlns:xlink="http://www.w3.org/1999/xlink">
    
    <defs>
        <filter x="-85.3%" y="-141.0%" width="270.7%" height="382.1%" filterUnits="objectBoundingBox" id="filter-1">
            <feGaussianBlur stdDeviation="5" in="SourceGraphic"></feGaussianBlur>
        </filter>
        <linearGradient x1="50%" y1="0%" x2="50%" y2="100%" id="linearGradient-2">
            <stop stop-color="#01FF96" offset="0%"></stop>
            <stop stop-color="#FFFFFF" offset="100%"></stop>
        </linearGradient>
        <path d="M17.7639101,8.71260931 C18.0211509,8.37172247 17.8896723,7.83604315 17.4809451,7.55531281 C17.0922256,7.32328059 16.5977515,7.45791657 16.3405107,7.79593882 L10.3639482,15.8597746 L7.1484375,13.0381482 C6.79115854,12.7316365 6.35099085,12.7087198 6.05087652,12.9808563 C5.76791159,13.2615866 5.77362805,13.6683592 6.07088415,13.9891939 L9.82088415,17.4754063 C10.2038872,17.8392099 10.8812881,17.7991056 11.1928354,17.4009269 C11.6215701,16.8423308 17.7639101,8.71260931 17.7639101,8.71260931 Z M24,12.0267169 C24,18.6707447 18.6292683,24.0534338 12,24.0534338 C5.37073171,24.0534338 0,18.6707447 0,12.0267169 C0,5.38268915 5.37073171,0 12,0 C18.6292683,0 24,5.38268915 24,12.0267169 Z M12.0292683,1.81867426 C6.58536585,1.81867426 1.78536585,6.6146943 1.78536585,12.0560504 C1.78536585,17.7174073 6.36585366,22.3227599 12.0292683,22.3227599 C17.6926829,22.3227599 22.2731707,17.7320741 22.2731707,12.0560504 C22.2585366,6.64402775 17.5463415,1.81867426 12.0292683,1.81867426 Z" id="path-3"></path>
        <filter x="-16.7%" y="-24.9%" width="141.7%" height="141.6%" filterUnits="objectBoundingBox" id="filter-4">
            <feOffset dx="1" dy="-1" in="SourceAlpha" result="shadowOffsetOuter1"></feOffset>
            <feGaussianBlur stdDeviation="1.5" in="shadowOffsetOuter1" result="shadowBlurOuter1"></feGaussianBlur>
            <feColorMatrix values="0 0 0 0 0.00392156863   0 0 0 0 1   0 0 0 0 0.588235294  0 0 0 0.698699738 0" type="matrix" in="shadowBlurOuter1"></feColorMatrix>
        </filter>
    </defs>
    <g id="页面-1" stroke="none" stroke-width="1" fill="none" fill-rule="evenodd">
        <g id="1_2.站控系统（站点）首页全屏_绿电_V2.2(波斯语）" transform="translate(-535, -261)">
            <g id="告警" transform="translate(542, 281) scale(-1, 1) translate(-542, -281)translate(474, 261)">
                <g id="正常" transform="translate(19, 4)">
                    <g id="icon_显示正常" transform="translate(31.5, 12.9488) scale(-1, 1) translate(-31.5, -12.9488)translate(19, 0.9221)">
                        <rect id="矩形" fill="#000000" fill-rule="nonzero" opacity="0" x="0" y="0" width="24" height="24.006546"></rect>
                        <ellipse id="椭圆形备份-24" fill-opacity="0.7" fill="#01FF96" style="mix-blend-mode: normal;" filter="url(#filter-1)" cx="11.788149" cy="17.3448987" rx="8.78814904" ry="5.31818182"></ellipse>
                        <path d="M18.7639101,8.71260931 C19.0211509,8.37172247 18.8896723,7.83604315 18.4809451,7.55531281 C18.0922256,7.32328059 17.5977515,7.45791657 17.3405107,7.79593882 L11.3639482,15.8597746 L8.1484375,13.0381482 C7.79115854,12.7316365 7.35099085,12.7087198 7.05087652,12.9808563 C6.76791159,13.2615866 6.77362805,13.6683592 7.07088415,13.9891939 L10.8208841,17.4754063 C11.2038872,17.8392099 11.8812881,17.7991056 12.1928354,17.4009269 C12.6215701,16.8423308 18.7639101,8.71260931 18.7639101,8.71260931 Z M25,12.0267169 C25,18.6707447 19.6292683,24.0534338 13,24.0534338 C6.37073171,24.0534338 1,18.6707447 1,12.0267169 C1,5.38268915 6.37073171,0 13,0 C19.6292683,0 25,5.38268915 25,12.0267169 Z M13.0292683,1.81867426 C7.58536585,1.81867426 2.78536585,6.6146943 2.78536585,12.0560504 C2.78536585,17.7174073 7.36585366,22.3227599 13.0292683,22.3227599 C18.6926829,22.3227599 23.2731707,17.7320741 23.2731707,12.0560504 C23.2585366,6.64402775 18.5463415,1.81867426 13.0292683,1.81867426 Z" id="形状备份-18" stroke="#01FF96" stroke-width="0.5" opacity="0.15" style="mix-blend-mode: normal;" fill-rule="nonzero"></path>
                        <g id="形状" fill-rule="nonzero">
                            <use fill="black" fill-opacity="1" filter="url(#filter-4)" xlink:href="#path-3"></use>
                            <use fill="url(#linearGradient-2)" xlink:href="#path-3"></use>
                        </g>
                    </g>
                </g>
            </g>
        </g>
    </g>
</svg>