<?xml version="1.0" encoding="UTF-8"?>
<svg width="40px" height="40px" viewBox="0 0 40 40" version="1.1" xmlns="http://www.w3.org/2000/svg" xmlns:xlink="http://www.w3.org/1999/xlink">
    
    <g id="设计稿" stroke="none" stroke-width="1" fill="none" fill-rule="evenodd">
        <g id="8_1_17.设备管理_设备列表_-配置_能量管理_参数模版配置" transform="translate(-1563, -1091)">
            <g id="main" transform="translate(212, 102)">
                <g id="2" transform="translate(0, 214)">
                    <g id="编组6" transform="translate(1140, 610)">
                        <g id="ic_+" transform="translate(211, 165)">
                            <circle id="Oval" fill="#007DFF" cx="20" cy="20" r="20"></circle>
                            <g id="ic_Plus" transform="translate(12.1053, 12.1053)" fill="#FFFFFF">
                                <path d="M8.77192982,7.01754386 L14.9122807,7.01754386 C15.396741,7.01754386 15.7894737,7.41027654 15.7894737,7.89473684 C15.7894737,8.37919715 15.396741,8.77192982 14.9122807,8.77192982 L8.77192982,8.77192982 L8.77192982,14.9122807 C8.77192982,15.396741 8.37919715,15.7894737 7.89473684,15.7894737 C7.41027654,15.7894737 7.01754386,15.396741 7.01754386,14.9122807 L7.01754386,8.77192982 L0.877192982,8.77192982 C0.392732676,8.77192982 0,8.37919715 0,7.89473684 C0,7.41027654 0.392732676,7.01754386 0.877192982,7.01754386 L7.01754386,7.01754386 L7.01754386,0.877192982 C7.01754386,0.392732676 7.41027654,0 7.89473684,0 C8.37919715,0 8.77192982,0.392732676 8.77192982,0.877192982 L8.77192982,7.01754386 Z" id="Path"></path>
                            </g>
                        </g>
                    </g>
                </g>
            </g>
        </g>
    </g>
</svg>