<?xml version="1.0" encoding="UTF-8"?>
<svg width="48px" height="48px" viewBox="0 0 48 48" version="1.1" xmlns="http://www.w3.org/2000/svg" xmlns:xlink="http://www.w3.org/1999/xlink">
    
    <g id="光储充及工商储管理系统V1.5" stroke="none" stroke-width="1" fill="none" fill-rule="evenodd">
        <g id="3_1_12.站点监视_站点概览_光充示范站（风光柴）" transform="translate(-675.000000, -178.000000)">
            <g id="main" transform="translate(212.000000, 102.000000)">
                <g id="1" transform="translate(20.000000, 52.000000)">
                    <g id="编组-2" transform="translate(419.000000, 0.000000)">
                        <g id="icon_风机" transform="translate(24.000000, 24.000000)">
                            <rect id="bg" fill="#3DD598" x="0" y="0" width="48" height="48" rx="8"></rect>
                            <rect id="矩形" x="12" y="12" width="24" height="24"></rect>
                            <g id="风力发电" transform="translate(13.000000, 10.000000)" fill="#FFFFFF" fill-rule="nonzero">
                                <path d="M12.0273746,16.3182196 L10.1453646,16.3182196 L10.1453646,28 L12.029701,28 L12.029701,16.3182196 L12.0273746,16.3182196 Z M15.2563361,12.3421359 C15.1795669,12.2886564 15.0655761,12.295632 14.9539118,12.3653878 C14.8326646,12.4415817 14.7383053,12.5537814 14.6840562,12.6862647 C14.4726593,13.2230437 14.1994107,13.7333768 13.8698368,14.2069424 C13.5370222,14.6786134 13.1505937,15.1101077 12.7182979,15.4927753 C12.610647,15.5878714 12.5364309,15.7150364 12.5066009,15.8555057 C12.4810111,15.9880419 12.5112536,16.097326 12.5903492,16.1508055 C14.4839909,17.4133865 16.5381501,18.5690085 18.1968313,19.3177213 C19.0250088,19.6990533 19.7508272,19.968776 20.3277598,20.0989869 C20.9233031,20.1617671 21.2420119,20.4012622 21.8235972,19.7734596 C22.2097698,19.0200963 21.8794293,18.7945524 21.6165528,18.2574323 C20.6604266,16.7902342 18.010724,14.3743564 15.2563361,12.3421359 L15.2563361,12.3421359 Z M6.8303285,12.3095831 L6.74192754,12.3421359 C3.98986597,14.3743564 1.34016342,16.7902342 0.381710866,18.2574323 C0.118834317,18.7945524 -0.209179784,19.0200963 0.176992845,19.7734596 C0.75857813,20.4012622 1.07728687,20.1617671 1.6728302,20.0989869 C2.40812475,19.9100718 3.12274376,19.6483557 3.80608502,19.3177213 C5.46011357,18.5713337 7.51659914,17.4110613 9.41256717,16.1508055 C9.48701009,16.097326 9.51957886,15.9880419 9.49398911,15.8555057 C9.46415913,15.7150364 9.38994302,15.5878714 9.28229207,15.4927753 C8.84918078,15.1102406 8.46196691,14.6787411 8.12842686,14.2069424 C7.79885299,13.7333768 7.52560432,13.2230437 7.31420746,12.6862647 C7.26057327,12.5541087 7.16706006,12.4419482 7.04667823,12.3653878 C6.93268751,12.295632 6.82102314,12.2886564 6.74425388,12.3421359 L6.8303285,12.3095831 Z M11.0130899,10.4750042 C10.4508285,10.4706727 9.9099415,10.6900918 9.50974097,11.0848607 C9.10954044,11.4796296 8.88290779,12.0173131 8.87983505,12.5793058 C8.87983505,13.7395781 9.83363492,14.6836403 11.0130899,14.6836403 C12.1830325,14.6900528 13.1373825,13.7486555 13.1463447,12.5793058 C13.143272,12.0173131 12.9166393,11.4796296 12.5164388,11.0848607 C12.1162382,10.6900918 11.5753512,10.4706727 11.0130899,10.4750042 L11.0130899,10.4750042 Z M11.0130899,0 C10.1756071,0.116259758 10.1779334,0.513868128 9.8894671,1.03703704 C9.23576524,2.66467364 8.7751497,6.21989703 8.68907508,9.64025909 C8.68907508,9.7332669 8.76119165,9.82162431 8.88216139,9.87277861 C9.01441136,9.92863206 9.16086538,9.94166887 9.3009028,9.90998173 C9.84061394,9.782096 10.4128939,9.70303936 11.0130899,9.70303936 C11.5993278,9.70768975 12.1809131,9.77744561 12.7276033,9.90998173 C12.8673016,9.94370388 13.0141576,9.9314719 13.1463447,9.8751038 C13.2696408,9.82162431 13.3417574,9.7332669 13.3417574,9.6379339 C13.2992261,7.48987725 13.0915701,5.34826539 12.7206243,3.23202126 C12.6002204,2.48286091 12.4053954,1.74756374 12.139039,1.03703704 C11.8482463,0.513868128 11.859878,0.116259758 11.0130899,0 L11.0130899,0 Z" id="形状"></path>
                            </g>
                        </g>
                    </g>
                </g>
            </g>
        </g>
    </g>
</svg>