<?xml version="1.0" encoding="UTF-8"?>
<svg width="50px" height="50px" viewBox="0 0 50 50" version="1.1" xmlns="http://www.w3.org/2000/svg" xmlns:xlink="http://www.w3.org/1999/xlink">
    
    <g id="页面-1" stroke="none" stroke-width="1" fill="none" fill-rule="evenodd">
        <g id="1_1.首页_光伏_日" transform="translate(-674, -194)">
            <g id="main" transform="translate(212, 102)">
                <g id="1" transform="translate(24, 24)">
                    <g id="设备概览" transform="translate(418, 0)">
                        <g id="编组-8" transform="translate(20, 68)">
                            <g id="icon_光伏1备份-4" transform="translate(0, 0)">
                                <rect id="bg" fill="#FF974A" x="0" y="0" width="50" height="50" rx="8"></rect>
                                <g id="icon_设备概览备份-2" transform="translate(13, 13)" fill-rule="nonzero">
                                    <g id="设备详情">
                                        <rect id="矩形" fill="#000000" opacity="0" x="0" y="0" width="24" height="24"></rect>
                                        <g transform="translate(2, 2)" fill="#FFFFFF" id="形状">
                                            <path d="M1.42857143,0 L18.5714286,0 C19.3604068,0 20,0.639593213 20,1.42857143 L20,7.14285715 C20,7.93183536 19.3604068,8.57142857 18.5714286,8.57142857 L1.42857143,8.57142857 C0.639593213,8.57142857 0,7.93183536 0,7.14285715 L0,1.42857143 C0,0.639593213 0.639593213,0 1.42857143,0 Z M3.57142857,2.85714285 C3.17698559,2.85720808 2.85726097,3.17698558 2.85726097,3.57142856 C2.85726097,3.96587155 3.17698559,4.28564905 3.57142857,4.28571428 L7.85714285,4.28571428 C8.25158583,4.28564905 8.57131046,3.96587155 8.57131046,3.57142856 C8.57131046,3.17698558 8.25158583,2.85720808 7.85714285,2.85714285 L3.57142857,2.85714285 Z M1.42857143,11.4285714 L18.5714286,11.4285714 C19.3604068,11.4285714 20,12.0681646 20,12.8571429 L20,18.5714286 C20,18.9503093 19.8494902,19.313672 19.5815811,19.5815811 C19.313672,19.8494902 18.9503093,20 18.5714286,20 L1.42857143,20 C1.04969073,20 0.686327995,19.8494902 0.418418883,19.5815811 C0.150509772,19.313672 0,18.9503093 0,18.5714286 L0,12.8571429 C0,12.4782622 0.150509772,12.1148994 0.418418883,11.8469903 C0.686327995,11.5790812 1.04969073,11.4285714 1.42857143,11.4285714 L1.42857143,11.4285714 Z M3.57142857,14.2857143 C3.17693946,14.2857143 2.85714285,14.6055109 2.85714285,15 C2.85714285,15.3944891 3.17693946,15.7142857 3.57142857,15.7142857 L7.85714285,15.7142857 C8.25163196,15.7142857 8.57142857,15.3944891 8.57142857,15 C8.57142857,14.6055109 8.25163196,14.2857143 7.85714285,14.2857143 L3.57142857,14.2857143 Z"></path>
                                        </g>
                                    </g>
                                </g>
                            </g>
                        </g>
                    </g>
                </g>
            </g>
        </g>
    </g>
</svg>