<?xml version="1.0" encoding="UTF-8"?>
<svg width="50px" height="50px" viewBox="0 0 50 50" version="1.1" xmlns="http://www.w3.org/2000/svg" xmlns:xlink="http://www.w3.org/1999/xlink">
    
    <g id="设计稿" stroke="none" stroke-width="1" fill="none" fill-rule="evenodd">
        <g id="1_1.首页_光伏_日" transform="translate(-256, -194)">
            <g id="main" transform="translate(212, 102)">
                <g id="1" transform="translate(24, 24)">
                    <g id="icon_站点总数" transform="translate(20, 68)">
                        <rect id="bg备份" fill="#007DFF" x="0" y="0" width="50" height="50" rx="8"></rect>
                        <g id="icon_电站" transform="translate(13, 13)" fill-rule="nonzero">
                            <rect id="矩形" opacity="0.0979969113" x="0" y="3.63797881e-12" width="24" height="24"></rect>
                            <g id="电站总数" transform="translate(0.5, 0)" fill="#FFFFFF">
                                <path d="M14.3234237,11.1290905 L8.58527376,17.8285463 L10.499152,13.1121843 L8.36363745,13.1121843 L10.499152,7.54279023 L14.636363,7.54279023 L11.9237577,11.1318334 L14.3234237,11.1318334 L14.3234237,11.1284048 L14.3234237,11.1290905 Z M9.57148561,1.18276438 L9.57148561,4.73820741 L0.802912271,8.04473514 C0.308475823,8.30036602 -0.000837885091,8.8049242 1.70489789e-06,9.35445475 L1.70489789e-06,17.7215745 C1.70489789e-06,18.5375778 0.671185035,19.1999805 1.49709391,19.1999805 L21.5029065,19.1999805 C22.331107,19.198089 23.0011533,18.5364052 23.0000017,17.7215745 L23.0000017,6.45044295 C23.0000017,5.87718349 22.6619668,5.35329562 22.1343609,5.11055179 L11.275576,0.113045766 C10.4817278,-0.253812858 9.57148561,0.316703727 9.57148561,1.18345012 L9.57148561,1.18276438 Z M21.5029065,24 L1.49709391,24 C0.670488069,24 3.41674626e-06,23.3855975 3.41674626e-06,22.6285658 C3.41674626e-06,21.8715342 0.670488069,21.2571317 1.49709391,21.2571317 L21.5029065,21.2571317 C22.3295123,21.2571317 23.0000034,21.8715342 23.0000034,22.6285658 C23.0000034,23.3855975 22.3295124,24 21.5029065,24 Z" id="形状"></path>
                            </g>
                        </g>
                    </g>
                </g>
            </g>
        </g>
    </g>
</svg>