<?xml version="1.0" encoding="UTF-8"?>
<svg width="48px" height="48px" viewBox="0 0 48 48" version="1.1" xmlns="http://www.w3.org/2000/svg" xmlns:xlink="http://www.w3.org/1999/xlink">
    
    <g id="光储充及工商储管理系统V1.5" stroke="none" stroke-width="1" fill="none" fill-rule="evenodd">
        <g id="3_1_1.站点监视_站点概览_光储充示范站(风光柴储充）" transform="translate(-1094.000000, -178.000000)">
            <g id="main" transform="translate(212.000000, 102.000000)">
                <g id="1" transform="translate(20.000000, 52.000000)">
                    <g id="编组3" transform="translate(838.000000, 0.000000)">
                        <g id="icon_柴油发电机" transform="translate(24.000000, 24.000000)">
                            <rect id="bg" fill="#7A79FF" x="0" y="0" width="48" height="48" rx="8"></rect>
                            <g id="柴油发电机" transform="translate(11.000000, 12.000000)" fill-rule="nonzero">
                                <rect id="矩形" fill="#000000" opacity="0" x="1" y="0" width="24" height="24"></rect>
                                <g id="发电系统_柴油发电机" transform="translate(0.000000, 1.000000)" fill="#FFFFFF">
                                    <path d="M17.8106635,8.98068511 C16.3289363,8.98068511 15.126277,10.1888238 15.126277,11.6776437 C15.126277,13.1664636 16.3256187,14.3745753 17.8106635,14.3745753 C19.2226172,14.3745753 20.49505,13.1664365 20.49505,11.6776437 C20.49505,10.188851 19.2923907,8.98068511 17.8106635,8.98068511 L17.8106635,8.98068511 Z M18.6113217,12.5092987 L17.0631385,12.5092987 C16.6212744,12.5092987 16.2657978,12.1499302 16.2657978,11.7050121 C16.2657978,11.2600939 16.6245919,10.9007254 17.0631385,10.9007254 L18.6113217,10.9007254 C19.0531859,10.9007254 19.4086625,11.2600939 19.4086625,11.7050121 C19.4086625,12.1499302 19.0498684,12.5092987 18.6113217,12.5092987 Z" id="形状"></path>
                                    <path d="M23.2325961,4.40136163 L21.8206161,4.40136163 L21.8206161,3.40883312 L22.1727751,3.40883312 C22.8073196,3.40883312 23.302317,2.91246036 23.302317,2.27254637 L23.302317,1.13628675 C23.302317,0.496155762 22.8073196,0 22.1727751,0 L16.0265929,0 C15.3920484,0 14.8970511,0.496372755 14.8970511,1.13628675 L14.8970511,2.27257349 C14.8970511,2.91270448 15.3920484,3.40886024 16.0265929,3.40886024 L16.378752,3.40886024 L16.378752,4.40138876 L14.5415482,4.40138876 L12.0697736,1.34847932 C11.7176145,0.852106564 11.2923644,0.284071687 10.3754081,0.284071687 L4.65771459,0.284071687 C3.74075829,0.284071687 3.17598736,0.924202672 3.17598736,1.77286446 L3.17598736,4.32948252 L1.76408636,4.32948252 C0.774091627,4.32948252 0,5.10981847 0,6.10234698 L0,18.0948484 C0,19.0873769 0.777409163,19.8677128 1.76408636,19.8677128 L3.24581359,19.8677128 L3.24581359,20.4392739 C3.24581359,21.2914889 3.95344918,22 4.80063191,22 L7.76745656,22 C8.61463928,22 9.32227488,21.2914889 9.32227488,20.4392739 L9.32227488,19.8711847 L15.747525,19.8711847 L15.747525,20.4393281 C15.747525,21.2915432 16.4551606,22 17.3023433,22 L20.2691153,22 C21.1162981,22 21.8239336,21.2915432 21.8239336,20.4393281 L21.8239336,19.8711847 L23.2359136,19.8711847 C24.2259084,19.8711847 25,19.0908488 25,18.0983203 L25,6.1742261 C24.9966825,5.18169758 24.2192733,4.40136163 23.2325434,4.40136163 L23.2325961,4.40136163 Z M6.89702475,15.7983513 L8.19934176,12.5880402 L5.68438652,11.821402 L7.53817799,8.64871209 L9.65771459,8.64871209 L8.19602422,11.0341222 L10.7109005,11.4928195 L6.89702475,15.7983513 Z M4.94684044,4.45270773 L4.94684044,2.13565056 C4.94684044,1.943991 5.00663507,1.68386998 5.36211164,1.68386998 L10.2292522,1.68386998 C10.5249342,1.68386998 10.7043444,1.81393049 11.0000263,2.2622663 L12.6611638,4.44926296 L4.94684044,4.44926296 L4.94684044,4.45270773 Z M17.8106635,15.4390914 C15.7609268,15.4390914 14.1395471,13.7345799 14.1395471,11.7494957 C14.1395471,9.69255959 15.8339126,8.06000858 17.8106372,8.06000858 C19.7873618,8.06000858 21.41198,9.69255959 21.4817272,11.7494686 C21.4817272,13.8098224 19.857188,15.4389558 17.8106372,15.4389558 L17.8106635,15.4390914 Z M17.8505266,4.45281623 L17.8505266,3.46017922 L20.428594,3.46017922 L20.428594,4.45270773 L17.8505266,4.45281623 Z M16.4651395,2.37534707 C16.4019484,2.37534707 16.3422064,2.30346795 16.3422064,2.23503361 L16.3422064,1.09852987 C16.3422064,1.02665075 16.4053976,0.958216412 16.4651395,0.958216412 L21.8339126,0.958216412 C21.8971037,0.958216412 21.9568457,1.03009553 21.9568457,1.09852987 L21.9568457,2.23503361 C21.9568457,2.30691272 21.8936546,2.37534707 21.8339126,2.37534707 L16.4651395,2.37534707 Z" id="形状"></path>
                                </g>
                            </g>
                        </g>
                    </g>
                </g>
            </g>
        </g>
    </g>
</svg>