<?xml version="1.0" encoding="UTF-8"?>
<svg width="20px" height="20px" viewBox="0 0 20 20" version="1.1" xmlns="http://www.w3.org/2000/svg" xmlns:xlink="http://www.w3.org/1999/xlink">

    <g id="设计稿" stroke="none" stroke-width="1" fill="none" fill-rule="evenodd">
        <g id="2_3_1.站点管理_站点列表_站点运行图" transform="translate(-1336, -327)" fill="#FFFFFF">
            <g id="main" transform="translate(212, 102)">
                <g id="card缩略图2" transform="translate(764, 213)">
                    <g id="ic_删除" transform="translate(361.6667, 13.6667)">
                        <path d="M4.7194255,2.25 L5.27948877,0.569810195 C5.39291714,0.229525079 5.71136618,0 6.07005819,0 L10.5700582,0 C10.9287502,0 11.2471992,0.229525079 11.3606276,0.569810195 L11.9206909,2.25 L15.8200241,2.25 C16.2802614,2.25 16.6533574,2.62309604 16.6533574,3.08333333 C16.6533574,3.54357062 16.2802614,3.91666667 15.8200241,3.91666667 L15.1058124,3.91666667 L14.4942357,14.3134717 C14.4165059,15.6348783 13.3222405,16.6666667 11.9985497,16.6666667 L4.64156665,16.6666667 C3.31787588,16.6666667 2.22361052,15.6348783 2.14588072,14.3134717 L1.53430395,3.91666667 L0.833333333,3.91666667 C0.373096042,3.91666667 0,3.54357062 0,3.08333333 C0,2.62309604 0.373096042,2.25 0.833333333,2.25 L4.7194255,2.25 Z M6.47624643,2.25 L10.1638699,2.25 L9.9694255,1.66666667 L6.67069087,1.66666667 L6.47624643,2.25 L6.47624643,2.25 Z M13.4362647,3.91666667 L3.20385164,3.91666667 L3.80967134,14.2156017 C3.83558128,14.6560705 4.2003364,15 4.64156665,15 L11.9985497,15 C12.43978,15 12.8045351,14.6560705 12.830445,14.2156017 L13.4362647,3.91666667 Z M9.7383477,6.03135143 C9.76705652,5.57201041 10.1626991,5.22291404 10.6220401,5.25162285 C11.0813811,5.28033166 11.4304775,5.67597422 11.4017687,6.13531524 L11.0267687,12.1353152 C10.9980599,12.5946563 10.6024173,12.9437526 10.1430763,12.9150438 C9.68373527,12.886335 9.33463889,12.4906924 9.3633477,12.0313514 L9.7383477,6.03135143 Z M7.27676867,12.0313514 C7.30547748,12.4906924 6.95638111,12.886335 6.49704009,12.9150438 C6.03769908,12.9437526 5.64205652,12.5946563 5.6133477,12.1353152 L5.2383477,6.13531524 C5.20963889,5.67597422 5.55873527,5.28033166 6.01807628,5.25162285 C6.4774173,5.22291404 6.87305986,5.57201041 6.90176867,6.03135143 L7.27676867,12.0313514 Z" id="Shape"></path>
                    </g>
                </g>
            </g>
        </g>
    </g>
</svg>
