<?xml version="1.0" encoding="UTF-8"?>
<svg width="20px" height="20px" viewBox="0 0 20 20" version="1.1" xmlns="http://www.w3.org/2000/svg" xmlns:xlink="http://www.w3.org/1999/xlink">
    <g id="光储充及工商储管理系统V1.5" stroke="none" stroke-width="1" fill="none" fill-rule="evenodd">
        <g id="2_3_2.站点管理_站点列表_站点运行图" transform="translate(-948, -327)" fill="#FFFFFF" fill-rule="nonzero">
            <g id="main" transform="translate(212, 102)">
                <g id="card缩略图2" transform="translate(440, 213)">
                    <g id="icon_发布" transform="translate(296, 12)">
                        <g transform="translate(0, 0)">
                            <rect id="矩形" opacity="0" x="0" y="0" width="19.9610136" height="19.9610136"></rect>
                            <path d="M14.9337232,17.17154 L10.5165692,15.005848 C10.1871345,14.8440546 10.0487329,14.4463938 10.2105263,14.1150097 C10.288499,13.957115 10.4249513,13.8362573 10.5906433,13.7777778 C10.7582846,13.7212476 10.9395712,13.7309942 11.0994152,13.8089669 L14.7212476,15.5867446 L16.2846004,4.88304094 L9.24366472,13.331384 L9.24366472,17.2573099 C9.24366472,17.6237817 8.9454191,17.9220273 8.57894737,17.9220273 C8.21247563,17.9220273 7.91423002,17.6237817 7.91423002,17.2573099 L7.91423002,13.1130604 C7.91423002,13.0779727 7.91617934,13.0448343 7.92202729,13.0097466 C7.93762183,12.8810916 7.99025341,12.7582846 8.07212476,12.6588694 L14.705653,4.69785575 L4.07017544,10.2163743 L6.57699805,11.5165692 C6.90643275,11.6900585 7.03703704,12.0916179 6.87524366,12.4249513 C6.80116959,12.5789474 6.66666667,12.6959064 6.50487329,12.7524366 C6.34307992,12.8089669 6.16569201,12.797271 6.01169591,12.7231969 L2.38596491,10.8362573 C2.24756335,10.7641326 2.13840156,10.6471735 2.07602339,10.5048733 C1.99415205,10.3508772 1.97660819,10.1695906 2.02729045,10.0038986 C2.07797271,9.83625731 2.19298246,9.69590643 2.34892788,9.61403509 L16.9610136,2.0331384 C17.0584795,1.98245614 17.1676413,1.95700599 17.2768031,1.95700599 C17.6023392,1.95126706 17.8830409,2.18128655 17.9415205,2.50097466 C17.962963,2.60818713 17.9590643,2.71734893 17.9298246,2.82261209 L15.9083821,16.6647173 C15.8654971,16.9649123 15.6296296,17.1871345 15.3450292,17.2300195 C15.2046784,17.2553606 15.0604288,17.2358674 14.9337232,17.17154 Z" id="路径" stroke="#FFFFFF" stroke-width="0.222222222"></path>
                        </g>
                    </g>
                </g>
            </g>
        </g>
    </g>
</svg>
