<?xml version="1.0" encoding="UTF-8"?>
<svg width="20px" height="20px" viewBox="0 0 20 20" version="1.1" xmlns="http://www.w3.org/2000/svg" xmlns:xlink="http://www.w3.org/1999/xlink">
    <g id="光储充及工商储管理系统V1.5" stroke="none" stroke-width="1" fill="none" fill-rule="evenodd">
        <g id="2_3_2.站点管理_站点列表_站点运行图" transform="translate(-980, -327)" fill="#FFFFFF">
            <g id="main" transform="translate(212, 102)">
                <g id="card缩略图2" transform="translate(440, 213)">
                    <g id="icon_编辑" transform="translate(330.4999, 14.4998)">
                        <path d="M14.625,13.7185 C14.832125,13.7185 15,13.8865 15,14.0935 L15,14.8435 C15,15.050625 14.832125,15.2185 14.625,15.2185 L0.375,15.2185 C0.16789375,15.2185 0,15.050625 0,14.8435 L0,14.0935 C0,13.8865 0.16789375,13.7185 0.375,13.7185 L14.625,13.7185 Z M9.3265625,0.175857525 L9.37565,0.221063775 L11.9513,2.81026252 C12.242875,3.10337502 12.2422625,3.57717502 11.9499125,3.86952502 L11.672625,4.14637502 L11.6776625,4.15147502 L3.6105125,12.21855 L0.75,12.21855 C0.35461375,12.21855 0.030688,11.9126 0.002057075,11.524525 L0,11.46855 L0,8.60803752 L7.79175,0.755625025 L7.784675,0.748606275 L8.3136,0.219670025 C8.5910875,-0.0578078503 9.0318875,-0.0724119753 9.3265625,0.175857525 Z M6.661125,4.00312502 L1.524375,9.24065002 L1.524375,9.24280002 L2.975625,10.69405 L2.9779,10.6941625 L8.16225,5.50425002 L6.661125,4.00312502 Z M8.826375,1.79550002 L7.711875,2.93212502 L9.22275,4.44300002 L10.343625,3.32100002 L8.826375,1.79550002 Z" id="形状"></path>
                    </g>
                </g>
            </g>
        </g>
    </g>
</svg>
